{"title":"Money Monster 2016 720p BRRIP X264 AC3 TiTAN","uid":15533867,"size":1662405787,"categoryP":"video","categoryS":"movies","magnet":"?xt=urn:btih:a778f23d40a6ef2a11f32e32b28882055d0c88c3&amp;dn=Money+Monster+2016+720p+BRRIP+X264+AC3+TiTAN&amp;tr=udp%3A%2F%2Ftracker.leechers-paradise.org%3A6969&amp;tr=udp%3A%2F%2Fzer0day.ch%3A1337&amp;tr=udp%3A%2F%2Fopen.demonii.com%3A1337&amp;tr=udp%3A%2F%2Ftracker.coppersurfer.tk%3A6969&amp;tr=udp%3A%2F%2Fexodus.desync.com%3A6969","seeders":5,"leechers":4,"uploader":"TGroup","files":3,"time":1470859971,"description":"Money Monster (2016)\r\nCrime | Drama | Thriller\r\nRatings: 6.8/10\r\nVotes: 17,215 People\r\nFinancial TV host Lee Gates and his producer Patty are put in an extreme situation when an irate investor takes over their studio.\r\nActors: George Clooney, Julia Roberts, Jack O'Connell\r\n\r\nSource 1080p Bluray\r\n\r\nGeneral\r\n\r\nFormat                                   : Matroska\r\nFormat version                           : Version 2\r\nFile size                                : 1.55 GiB\r\nDuration                                 : 1h 38mn\r\nOverall bit rate mode                    : Variable\r\nOverall bit rate                         : 2 247 Kbps\r\n\r\nVideo\r\n                           \r\nFormat                                   : AVC\r\nFormat/Info                              : Advanced Video Codec\r\nFormat profile                           :   \r\nFormat settings, CABAC                   : Yes\r\nFormat settings, ReFrames                : 3 frames\r\nCodec ID                                 : V_MPEG4/ISO/AVC\r\nDuration                                 : 1h 38mn\r\nBit rate mode                            : Variable\r\nBit rate                                 : 1 818 Kbps\r\nMaximum bit rate                         : 40.0 Mbps\r\nWidth                                    : 1 280 pixels\r\nHeight                                   : 544 pixels\r\nDisplay aspect ratio                     : 2.35:1\r\nFrame rate mode                          : Constant\r\nFrame rate                               : 23.976 fps\r\nColor space                              : YUV\r\nChroma subsampling                       : 4:2:0\r\nBit depth                                : 8 bits\r\nScan type                                : Progressive\r\nBits/(Pixel*Frame)                       : 0.109\r\nStream size                              : 1.25 GiB (81%)\r\nDefault                                  : Yes\r\nForced                                   : No\r\nColor primaries                          : BT.709\r\nTransfer characteristics                 : BT.709\r\nMatrix coefficients                      : BT.709\r\n\r\nAudio\r\n\r\nID                                       : 2\r\nFormat                                   : AC-3\r\nFormat/Info                              : Audio Coding 3\r\nMode extension                           : CM (complete main)\r\nFormat settings, Endianness              : Big\r\nCodec ID                                 : A_AC3\r\nDuration                                 : 1h 38mn\r\nBit rate mode                            : Constant\r\nBit rate                                 : 384 Kbps\r\nChannel(s)                               : 6 channels\r\nChannel positions                        : Front: L C R, Side: L R, LFE\r\nSampling rate                            : 48.0 KHz\r\nBit depth                                : 16 bits\r\nCompression mode                         : Lossy\r\nStream size                              : 271 MiB (17%)\r\nLanguage                                 : English\r\nDefault                                  : Yes\r\nForced                                   : No","torrent":{"xt":"urn:btih:a778f23d40a6ef2a11f32e32b28882055d0c88c3","amp;dn":"Money+Monster+2016+720p+BRRIP+X264+AC3+TiTAN","amp;tr":["udp%3A%2F%2Ftracker.leechers-paradise.org%3A6969","udp%3A%2F%2Fzer0day.ch%3A1337","udp%3A%2F%2Fopen.demonii.com%3A1337","udp%3A%2F%2Ftracker.coppersurfer.tk%3A6969","udp%3A%2F%2Fexodus.desync.com%3A6969"],"infoHash":"a778f23d40a6ef2a11f32e32b28882055d0c88c3","infoHashBuffer":{"type":"Buffer","data":[167,120,242,61,64,166,239,42,17,243,46,50,178,136,130,5,93,12,136,195]},"announce":[],"urlList":[]}}